<svg version="1.2" xmlns="http://www.w3.org/2000/svg" viewBox="0 0 1048 508" width="1048" height="508">
	<title>GardaWorld logo for CMYK color printing-ai</title>
	<style>
		.s0 { fill: #5d6067 } 
		.s1 { fill: #ed2a24 } 
	</style>
	<g id="Layer 1">
		<g id="&lt;Group&gt;">
			<path id="&lt;Compound Path&gt;" fill-rule="evenodd" class="s0" d="m628.7 199.1l-30.3 110.5h-22.2l-17.8-54.5-13.4 40.7-14.1-38.5 17.8-58.2h19.3l17.8 58.4 14.5-58.4zm343 99.7c-7.6 7.6-18.3 10.8-29.8 10.8h-41v-110.5h41c11.5 0 22.2 3.3 29.8 10.9 12.9 12.9 11.5 27 11.5 44.4 0 17.4 1.4 31.5-11.5 44.4zm-18.6-69.3c-2.5-3.7-6.2-6.2-13.1-6.2h-11.9v62.1h11.9c6.9 0 10.6-2.5 13.1-6.2 2.1-3.1 2.9-6 2.9-24.8 0-18.7-0.8-21.8-2.9-24.9zm-251.4 68.6c-8.1 8.1-17.4 12.5-30.9 12.5-13.5 0-22.8-4.4-30.9-12.5-11.6-11.6-11.2-27.1-11.2-43.7 0-16.6-0.4-32.2 11.2-43.8 8.1-8.1 17.4-12.4 30.9-12.4 13.5 0 22.8 4.3 30.9 12.4 11.6 11.6 11.2 27.2 11.2 43.8 0 16.6 0.4 32.1-11.2 43.7zm-20-70.9c-2.1-2.6-5.9-4.8-10.9-4.8-5 0-8.8 2.2-10.9 4.8-2.5 3.3-4 7-4 27.2 0 20.2 1.5 23.7 4 27 2.1 2.6 5.9 4.9 10.9 4.9 5 0 8.8-2.3 10.9-4.9 2.5-3.3 4-6.8 4-27 0-20.2-1.5-23.9-4-27.2zm96.1 82.4l-19.6-41.1h-9.1v41.1h-27.2v-110.5h43.8c24.5 0 37.7 17.4 37.7 35.6 0 15-9.3 24.5-18 28.8l23.9 46.1zm-13.3-86.1h-15.4v22.3h15.4c7.4 0 11.8-5.4 11.8-11.1 0-5.8-4.4-11.2-11.8-11.2zm53.9 86.1v-110.5h27.1v86.3h46.4v24.2z"/>
			<path id="&lt;Compound Path&gt;" fill-rule="evenodd" class="s1" d="m139.6 298.1c-9.4 9.8-20 12.5-32.1 12.5-12.9 0-22.7-4.4-30.7-12.5-11.7-11.6-11.2-27.1-11.2-43.7 0-16.6-0.5-32.2 11.2-43.8 8-8.1 17.3-12.4 30.7-12.4 28.4 0 40.5 18.4 43.2 36.6h-27.4c-2.1-8.4-6.5-12.4-15.8-12.4-5 0-8.7 2.2-10.7 4.8-2.5 3.3-4.1 7-4.1 27.2 0 20.2 1.6 24.1 4.1 27.3 2 2.6 5.7 4.6 10.7 4.6 5.7 0 9.6-1.6 12.1-4.3 3.1-3.1 4.2-7.6 4.2-11.8v-1.6h-16.3v-22.6h43.3v15.4c0 17.8-2.8 28.2-11.2 36.7zm177.3 11.5l-19.6-41.1h-9.1v41.1h-27.2v-110.5h43.8c24.5 0 37.7 17.4 37.7 35.6 0 15-9.3 24.5-18 28.8l23.9 46.1zm-13.3-86.1h-15.4v22.3h15.4c7.4 0 11.8-5.4 11.8-11.1 0-5.8-4.4-11.2-11.8-11.2zm124.5 75.3c-7.6 7.6-18.3 10.8-29.8 10.8h-41v-110.5h41c11.5 0 22.2 3.3 29.8 10.9 12.9 12.9 11.5 27 11.5 44.4 0 17.4 1.4 31.5-11.5 44.4zm-18.6-69.3c-2.5-3.7-6.2-6.2-13-6.2h-12v62.1h12c6.8 0 10.5-2.5 13-6.2 2.2-3.1 3-6 3-24.8 0-18.7-0.8-21.8-3-24.9zm131.6 80.1h-27.3l-11.8-31.6-5.6 15.2h-22.9l-5.4 16.4h-28.4l40.2-110.5h20.9zm-40.7-39.1l-9.3-29.5-9.9 29.5zm-248.2 39.1h-27.2l-11.8-31.7-5.6 15.2h-22.9l-5.4 16.5h-28.4l40.2-110.5h20.9zm-40.6-39.2l-9.4-29.5-9.9 29.5z"/>
		</g>
	</g>
</svg>